<svg width="24" height="25" viewBox="0 0 24 25" fill="none" xmlns="http://www.w3.org/2000/svg">
<g id="Device/weight scale ">
<path id="Vector" d="M19 4.72297H17.55C17.4306 4.35828 17.244 4.01913 17 3.72297C16.717 3.4066 16.3702 3.15388 15.9823 2.9815C15.5945 2.80912 15.1744 2.721 14.75 2.72297H9.27C8.8422 2.71815 8.41832 2.80489 8.02681 2.97737C7.63529 3.14984 7.28519 3.40406 7 3.72297C6.74885 4.01752 6.55547 4.35678 6.43 4.72297H5C4.20435 4.72297 3.44129 5.03904 2.87868 5.60165C2.31607 6.16426 2 6.92732 2 7.72297V19.723C2 20.5186 2.31607 21.2817 2.87868 21.8443C3.44129 22.4069 4.20435 22.723 5 22.723H19C19.7956 22.723 20.5587 22.4069 21.1213 21.8443C21.6839 21.2817 22 20.5186 22 19.723V7.72297C22 6.92732 21.6839 6.16426 21.1213 5.60165C20.5587 5.03904 19.7956 4.72297 19 4.72297ZM8.52 5.06297C8.61371 4.9563 8.72906 4.87081 8.85838 4.81219C8.9877 4.75356 9.12802 4.72315 9.27 4.72297H14.73C14.872 4.72315 15.0123 4.75356 15.1416 4.81219C15.2709 4.87081 15.3863 4.9563 15.48 5.06297C15.5744 5.16797 15.6454 5.29176 15.6885 5.4262C15.7316 5.56064 15.7457 5.70267 15.73 5.84297L15.23 9.84297C15.2005 10.0869 15.0823 10.3114 14.8979 10.4737C14.7134 10.636 14.4757 10.7247 14.23 10.723H12.59L13.73 8.32297C13.8224 8.08761 13.8223 7.82598 13.7296 7.59074C13.6369 7.35549 13.4585 7.16411 13.2303 7.0551C13.0022 6.9461 12.7412 6.92757 12.4999 7.00324C12.2587 7.07892 12.055 7.24318 11.93 7.46297L10.37 10.723H9.77C9.52432 10.7247 9.28659 10.636 9.10215 10.4737C8.91771 10.3114 8.79948 10.0869 8.77 9.84297L8.27 5.84297C8.25425 5.70267 8.26839 5.56064 8.31148 5.4262C8.35457 5.29176 8.42563 5.16797 8.52 5.06297ZM20 19.723C20 19.9882 19.8946 20.2425 19.7071 20.4301C19.5196 20.6176 19.2652 20.723 19 20.723H5C4.73478 20.723 4.48043 20.6176 4.29289 20.4301C4.10536 20.2425 4 19.9882 4 19.723V7.72297C4 7.45775 4.10536 7.2034 4.29289 7.01586C4.48043 6.82833 4.73478 6.72297 5 6.72297H6.37L6.79 10.093C6.88069 10.8229 7.23638 11.494 7.78946 11.9789C8.34255 12.4638 9.05449 12.7286 9.79 12.723H14.25C14.9855 12.7286 15.6975 12.4638 16.2505 11.9789C16.8036 11.494 17.1593 10.8229 17.25 10.093L17.63 6.72297H19C19.2652 6.72297 19.5196 6.82833 19.7071 7.01586C19.8946 7.2034 20 7.45775 20 7.72297V19.723ZM14 16.723H10C9.73478 16.723 9.48043 16.8283 9.29289 17.0159C9.10536 17.2034 9 17.4578 9 17.723C9 17.9882 9.10536 18.2425 9.29289 18.4301C9.48043 18.6176 9.73478 18.723 10 18.723H14C14.2652 18.723 14.5196 18.6176 14.7071 18.4301C14.8946 18.2425 15 17.9882 15 17.723C15 17.4578 14.8946 17.2034 14.7071 17.0159C14.5196 16.8283 14.2652 16.723 14 16.723Z" fill="#2C85BC"/>
</g>
</svg>
