<svg width="46" height="47" viewBox="0 0 46 47" fill="none" xmlns="http://www.w3.org/2000/svg">
<g id="Icon/Pokemon">
<path id="Vector" opacity="0.3" d="M23 8.06665C30.82 8.06665 37.2792 13.9125 38.2183 21.4833H30.4367C29.5742 18.1675 26.565 15.7333 23 15.7333C19.435 15.7333 16.4258 18.1675 15.5825 21.4833H7.78167C8.72084 13.9125 15.18 8.06665 23 8.06665Z" fill="#005FFF"/>
<path id="Vector_2" d="M23 4.23315C12.42 4.23315 3.83334 12.8198 3.83334 23.3998C3.83334 33.9798 12.42 42.5665 23 42.5665C33.58 42.5665 42.1667 33.9798 42.1667 23.3998C42.1667 12.8198 33.58 4.23315 23 4.23315ZM23 8.06649C30.82 8.06649 37.2792 13.9123 38.2183 21.4832H30.4367C29.5742 18.1673 26.565 15.7332 23 15.7332C19.435 15.7332 16.4258 18.1673 15.5825 21.4832H7.78167C8.72084 13.9123 15.18 8.06649 23 8.06649ZM26.8333 23.3998C26.8333 25.5082 25.1083 27.2332 23 27.2332C20.8917 27.2332 19.1667 25.5082 19.1667 23.3998C19.1667 21.2915 20.8917 19.5665 23 19.5665C25.1083 19.5665 26.8333 21.2915 26.8333 23.3998ZM23 38.7332C15.18 38.7332 8.72084 32.8873 7.78167 25.3165H15.5633C16.4067 28.6323 19.4158 31.0665 22.9808 31.0665C26.5458 31.0665 29.555 28.6323 30.3983 25.3165H38.18C37.2792 32.8873 30.82 38.7332 23 38.7332Z" fill="#005FFF"/>
</g>
</svg>
