<svg width="24" height="25" viewBox="0 0 24 25" fill="none" xmlns="http://www.w3.org/2000/svg">
<g id="Design tool/ruler ">
<path id="Vector" d="M22.61 7.77314L17 2.11314C16.9066 2.02046 16.7958 1.94713 16.6739 1.89737C16.5521 1.8476 16.4216 1.82238 16.29 1.82314C16.0277 1.82424 15.7763 1.92839 15.59 2.11314L1.39004 16.2631C1.20378 16.4505 1.09924 16.704 1.09924 16.9681C1.09924 17.2323 1.20378 17.4858 1.39004 17.6731L7.05004 23.3331C7.14348 23.4258 7.25429 23.4991 7.37613 23.5489C7.49797 23.5987 7.62843 23.6239 7.76004 23.6231C8.02238 23.622 8.27378 23.5179 8.46004 23.3331L11.29 20.5031L19.78 12.0131L22.61 9.18314C22.7963 8.99577 22.9008 8.74232 22.9008 8.47814C22.9008 8.21395 22.7963 7.9605 22.61 7.77314ZM19.07 9.89314L18.36 9.18314C18.1727 8.99689 17.9192 8.89234 17.655 8.89234C17.3909 8.89234 17.1374 8.99689 16.95 9.18314C16.8563 9.2761 16.7819 9.3867 16.7311 9.50856C16.6804 9.63042 16.6542 9.76113 16.6542 9.89314C16.6542 10.0251 16.6804 10.1559 16.7311 10.2777C16.7819 10.3996 16.8563 10.5102 16.95 10.6031L17.66 11.3131L16.24 12.7231L14.12 10.6031C13.9287 10.4393 13.6827 10.3537 13.431 10.3634C13.1793 10.3731 12.9406 10.4775 12.7625 10.6556C12.5844 10.8337 12.48 11.0724 12.4703 11.3241C12.4606 11.5758 12.5462 11.8218 12.71 12.0131L14.83 14.1331L13.41 15.5531L12.71 14.8431C12.5217 14.6548 12.2663 14.549 12 14.549C11.7337 14.549 11.4783 14.6548 11.29 14.8431C11.1017 15.0314 10.9959 15.2868 10.9959 15.5531C10.9959 15.8194 11.1017 16.0748 11.29 16.2631L12 16.9631L10.59 18.3831L8.46004 16.2631C8.27267 16.0769 8.01922 15.9723 7.75504 15.9723C7.49085 15.9723 7.2374 16.0769 7.05004 16.2631C6.86378 16.4505 6.75924 16.704 6.75924 16.9681C6.75924 17.2323 6.86378 17.4858 7.05004 17.6731L9.17004 19.7931L7.76004 21.2131L3.51004 16.9631L16.24 4.23314L20.49 8.48314L19.07 9.89314Z" fill="#2C85BC"/>
</g>
</svg>
